<?xml version="1.0" encoding="utf-8"?>
<!-- Generator: Adobe Illustrator 23.0.2, SVG Export Plug-In . SVG Version: 6.00 Build 0)  -->
<svg version="1.1" id="Ebene_1" xmlns="http://www.w3.org/2000/svg" xmlns:xlink="http://www.w3.org/1999/xlink" x="0px" y="0px"
	 viewBox="0 0 512 512" style="enable-background:new 0 0 512 512;" xml:space="preserve">
<style type="text/css">
	.st0{fill:#4D636F;}
	.st1{fill:#FFFFFF;stroke:#FFFFFF;stroke-width:0.01;stroke-miterlimit:10;}
</style>
<circle class="st0" cx="255.21" cy="247.6" r="203.85"/>
<g>
	<path class="st1" d="M255.14,76.65c75.05,0.05,127.44,76.18,100.8,146.41c-6.22,16.39-15.81,30.99-24.07,46.29
		c-7.83,14.5-14,29.39-14.11,46.27c-0.03,3.59-0.53,8.18-2.71,10.58c-12.7,13.93-7.28,30.15-6.31,45.67
		c0.73,11.72-3.94,18.43-15.58,19.78c-3.31,0.38-6.42,0.44-9.36,2.65c-19.33,14.53-38.52,14.52-56.87,0.14
		c-3.1-2.43-6.6-3.07-10.38-3.23c-9.68-0.42-14.35-6.52-14.07-15.24c0.35-11.03-2.9-22.21,1.07-33.12c1.02-2.8-0.17-4.96-2.24-6.9
		c-6.64-6.23-9.12-14.27-9.46-23.04c-0.58-15.22-5.96-28.86-13.08-42.05c-10.01-18.54-22.16-36.1-27.97-56.66
		C131.4,145.57,183.79,76.6,255.14,76.65z M254.71,333.27c0,0.16,0,0.32,0,0.48c4.82,0,9.64,0.05,14.46-0.01
		c4.82-0.06,9.64-0.17,14.45-0.39c15.74-0.72,22.32-6.77,23.08-22.41c0.67-13.64,4.45-26.22,10.64-38.23
		c7.81-15.15,15.45-30.39,23.52-45.4c16.89-31.38,14.16-62-3.29-92.01c-23.33-40.13-73.24-57.56-116.54-40.94
		c-43.7,16.78-70.6,63.46-61.55,107.58c3.85,18.79,14.22,34.91,23.13,51.52c10.4,19.36,20.05,38.69,21.18,61.4
		c0.6,12.08,7.42,17.67,19.79,18.29C233.93,333.69,244.33,333.27,254.71,333.27z M221.66,367.55c22.73-4.02,46.39-8.19,70.05-12.41
		c2.72-0.49,5.25-1.79,4.71-5.01c-0.47-2.79-2.77-4.55-5.67-4.19c-5.87,0.72-11.7,1.77-17.53,2.78
		c-17.49,3.02-34.98,6.07-52.46,9.16c-3.39,0.6-7.01,1.82-6.82,5.89C214.11,367.6,217.57,367.78,221.66,367.55z M222.38,380.41
		c22.07-3.88,45.68-7.97,69.25-12.23c2.93-0.53,6.05-2.04,5-5.9c-0.96-3.52-4.06-3.82-7.23-3.27c-23.24,4.03-46.49,8.03-69.72,12.14
		c-3.02,0.53-6.11,2.04-5.74,5.6C214.35,380.55,217.75,380.62,222.38,380.41z M251.72,378.4c0.13,0.84,0.27,1.69,0.4,2.53
		c12.37,0,24.75,0.1,37.12-0.06c3.47-0.04,8.44,0.49,7.87-4.97c-0.5-4.77-4.7-4.76-8.63-4.04
		C276.22,374.07,263.97,376.22,251.72,378.4z M258.51,347.87c-0.06-0.73-0.12-1.46-0.19-2.19c-12.99,0-25.99-0.08-38.98,0.06
		c-3.03,0.03-6.3,0.96-5.9,4.9c0.37,3.65,3.48,4.65,6.6,4.12C232.89,352.59,245.69,350.19,258.51,347.87z M240.86,390.41
		c14.46,5.9,16.03,5.86,27.26,0C259.26,390.41,251.79,390.41,240.86,390.41z"/>
</g>
</svg>
