<?xml version="1.0" encoding="utf-8"?>
<!-- Generator: Adobe Illustrator 24.0.1, SVG Export Plug-In . SVG Version: 6.00 Build 0)  -->
<svg version="1.1" id="Layer_1" xmlns="http://www.w3.org/2000/svg" xmlns:xlink="http://www.w3.org/1999/xlink" x="0px" y="0px"
	 viewBox="0 0 76 79" style="enable-background:new 0 0 76 79;" xml:space="preserve">
<style type="text/css">
	.st0{fill:#4F6571;}
	.st1{fill:#F1F2F2;}
</style>
<circle class="st0" cx="38" cy="39.5" r="27.58"/>
<g>
	<path class="st1" d="M38.04,15.74c10.15,0.01,17.24,10.31,13.64,19.81c-0.84,2.22-2.14,4.19-3.26,6.26
		c-1.06,1.96-1.9,3.98-1.91,6.26c0,0.48-0.07,1.11-0.37,1.43c-1.72,1.88-0.98,4.08-0.85,6.18c0.1,1.58-0.53,2.5-2.11,2.68
		c-0.45,0.05-0.87,0.06-1.26,0.36c-2.61,1.96-5.21,1.96-7.69,0.02c-0.42-0.33-0.89-0.42-1.4-0.44c-1.31-0.06-1.94-0.88-1.9-2.06
		c0.05-1.49-0.39-3.01,0.15-4.48c0.14-0.38-0.02-0.67-0.3-0.93c-0.9-0.84-1.23-1.93-1.28-3.12c-0.08-2.06-0.81-3.91-1.77-5.69
		c-1.35-2.51-3-4.88-3.78-7.67C21.29,25.07,28.38,15.74,38.04,15.74z M36.53,50.62l3.41-0.09c0.65-0.01,1.3-0.02,1.95-0.05
		c2.13-0.1,3.02-0.92,3.12-3.03c0.09-1.85,0.6-3.55,1.44-5.17c1.06-2.05,2.09-4.11,3.18-6.14c2.28-4.24,1.91-8.39-0.45-12.45
		c-3.16-5.43-9.91-7.79-15.77-5.54c-5.91,2.27-9.55,8.59-8.33,14.56c0.52,2.54,1.92,4.72,3.13,6.97c1.41,2.62,2.71,5.23,2.86,8.31
		c0.08,1.63,0.98,2.45,2.66,2.53L36.53,50.62z M33.51,55.1c3.08-0.54,6.27-1.11,9.48-1.68c0.37-0.07,0.71-0.24,0.64-0.68
		c-0.07-0.38-0.37-0.62-0.77-0.57c-0.8,0.1-1.58,0.24-2.37,0.38c-2.36,0.41-4.73,0.82-7.1,1.24c-0.46,0.08-0.95,0.25-0.92,0.8
		C32.49,55.11,32.95,55.13,33.51,55.1z M33.6,56.84c2.99-0.53,6.18-1.08,9.37-1.65c0.4-0.07,0.82-0.28,0.68-0.8
		c-0.13-0.48-0.55-0.52-0.98-0.44c-3.15,0.55-6.29,1.09-9.43,1.64c-0.41,0.07-0.83,0.28-0.78,0.76
		C32.52,56.86,32.98,56.87,33.6,56.84z M37.57,56.57c0.02,0.12,0.04,0.23,0.05,0.34c1.67,0,3.35,0.02,5.02-0.01
		c0.47,0,1.14,0.07,1.07-0.67c-0.07-0.65-0.63-0.65-1.17-0.55C40.89,55.99,39.23,56.28,37.57,56.57z M38.49,52.44
		c-0.01-0.1-0.02-0.2-0.03-0.3c-1.76,0-3.52-0.01-5.28,0.01c-0.41,0-0.85,0.13-0.8,0.66c0.05,0.49,0.47,0.63,0.89,0.56
		C35.03,53.08,36.76,52.75,38.49,52.44z M36.1,58.2c1.96,0.8,2.17,0.79,3.69,0C38.59,58.2,37.58,58.2,36.1,58.2z"/>
</g>
</svg>
