<?xml version="1.0" encoding="utf-8"?>
<!-- Generator: Adobe Illustrator 24.0.1, SVG Export Plug-In . SVG Version: 6.00 Build 0)  -->
<svg version="1.1" id="Layer_1" xmlns="http://www.w3.org/2000/svg" xmlns:xlink="http://www.w3.org/1999/xlink" x="0px" y="0px"
	 viewBox="0 0 76 79" style="enable-background:new 0 0 76 79;" xml:space="preserve">
<style type="text/css">
	.st0{fill:#4F6571;}
	.st1{fill:#F1F2F2;}
</style>
<circle class="st0" cx="37.36" cy="39.96" r="31.76"/>
<g>
	<path class="st1" d="M37.4,12.6c11.69,0.01,19.86,11.87,15.7,22.81c-0.97,2.55-2.46,4.83-3.75,7.21c-1.22,2.26-2.18,4.58-2.2,7.21
		c0,0.56-0.08,1.28-0.42,1.65c-1.98,2.17-1.13,4.7-0.98,7.11c0.12,1.82-0.62,2.87-2.43,3.08c-0.51,0.06-1,0.07-1.46,0.41
		c-3.01,2.26-6,2.26-8.86,0.02c-0.48-0.38-1.03-0.48-1.62-0.5c-1.51-0.07-2.24-1.01-2.19-2.37c0.05-1.72-0.45-3.46,0.17-5.16
		c0.16-0.44-0.03-0.77-0.35-1.08c-1.04-0.97-1.42-2.22-1.47-3.59c-0.09-2.37-0.93-4.5-2.04-6.55c-1.56-2.89-3.45-5.62-4.36-8.83
		C18.12,23.34,26.28,12.6,37.4,12.6z M35.66,52.76l3.93-0.1c0.75-0.01,1.5-0.03,2.25-0.06c2.45-0.11,3.48-1.05,3.59-3.49
		c0.11-2.13,0.7-4.09,1.66-5.95c1.22-2.36,2.41-4.73,3.67-7.07c2.63-4.89,2.2-9.66-0.51-14.34c-3.63-6.25-11.41-8.97-18.16-6.38
		c-6.81,2.61-11,9.89-9.59,16.76c0.6,2.93,2.21,5.44,3.6,8.03c1.62,3.01,3.13,6.03,3.3,9.57c0.09,1.88,1.13,2.82,3.06,2.91
		L35.66,52.76z M32.18,57.92c3.54-0.62,7.23-1.28,10.91-1.93c0.43-0.08,0.82-0.28,0.73-0.78c-0.08-0.43-0.43-0.71-0.89-0.65
		c-0.92,0.11-1.82,0.27-2.73,0.43c-2.72,0.47-5.45,0.95-8.17,1.43c-0.53,0.09-1.09,0.28-1.06,0.92
		C31.01,57.93,31.55,57.96,32.18,57.92z M32.29,59.93c3.44-0.61,7.11-1.24,10.79-1.9c0.46-0.08,0.94-0.32,0.78-0.92
		c-0.15-0.55-0.63-0.59-1.12-0.51c-3.62,0.63-7.24,1.25-10.86,1.89c-0.47,0.08-0.95,0.32-0.89,0.87
		C31.04,59.95,31.57,59.96,32.29,59.93z M36.86,59.62c0.02,0.13,0.04,0.26,0.06,0.39c1.93,0,3.86,0.02,5.78-0.01
		c0.54,0,1.31,0.08,1.23-0.77c-0.08-0.74-0.73-0.74-1.35-0.63C40.68,58.94,38.78,59.27,36.86,59.62z M37.92,54.86
		c-0.01-0.12-0.02-0.23-0.03-0.34c-2.02,0-4.05-0.01-6.07,0.01c-0.47,0-0.98,0.15-0.92,0.76c0.06,0.57,0.54,0.73,1.03,0.64
		C33.93,55.6,35.93,55.22,37.92,54.86z M35.17,61.49c2.25,0.92,2.5,0.91,4.25,0C38.04,61.49,36.88,61.49,35.17,61.49z"/>
</g>
</svg>
