<?xml version="1.0" encoding="utf-8"?>
<!-- Generator: Adobe Illustrator 23.1.0, SVG Export Plug-In . SVG Version: 6.00 Build 0)  -->
<svg version="1.1" id="Layer_1" xmlns="http://www.w3.org/2000/svg" xmlns:xlink="http://www.w3.org/1999/xlink" x="0px" y="0px"
	 viewBox="0 0 300 300" style="enable-background:new 0 0 300 300;" xml:space="preserve">
<style type="text/css">
	.st0{fill:#F1F2F2;}
	.st1{fill:#4E6470;}
</style>
<rect x="23.51" y="30.46" class="st0" width="255.06" height="229.18"/>
<circle class="st1" cx="151.04" cy="136.78" r="71.73"/>
<g>
	<path class="st0" d="M151.14,74.99c26.41,0.02,44.85,26.81,35.47,51.52c-2.19,5.77-5.56,10.91-8.47,16.29
		c-2.76,5.1-4.93,10.34-4.97,16.28c-0.01,1.26-0.19,2.88-0.95,3.72c-4.47,4.9-2.56,10.61-2.22,16.07c0.26,4.12-1.39,6.49-5.48,6.96
		c-1.16,0.13-2.26,0.15-3.29,0.93c-6.8,5.11-13.56,5.11-20.01,0.05c-1.09-0.86-2.32-1.08-3.65-1.14c-3.41-0.15-5.05-2.29-4.95-5.36
		c0.12-3.88-1.02-7.82,0.38-11.65c0.36-0.99-0.06-1.75-0.79-2.43c-2.34-2.19-3.21-5.02-3.33-8.11c-0.2-5.36-2.1-10.16-4.6-14.8
		c-3.52-6.52-7.8-12.7-9.84-19.94C107.59,99.25,126.03,74.98,151.14,74.99z M147.21,165.7l8.87-0.23c1.7-0.02,3.39-0.06,5.08-0.14
		c5.54-0.25,7.85-2.38,8.12-7.89c0.24-4.8,1.57-9.23,3.74-13.45c2.75-5.33,5.44-10.69,8.28-15.98c5.94-11.04,4.98-21.82-1.16-32.38
		c-8.21-14.12-25.77-20.26-41.01-14.41c-15.38,5.9-24.84,22.33-21.66,37.86c1.35,6.61,5,12.28,8.14,18.13
		c3.66,6.81,7.06,13.61,7.45,21.61c0.21,4.25,2.56,6.36,6.91,6.58L147.21,165.7z M139.36,177.36c8-1.41,16.32-2.88,24.65-4.37
		c0.96-0.17,1.85-0.63,1.66-1.76c-0.17-0.98-0.97-1.6-2-1.47c-2.07,0.25-4.12,0.62-6.17,0.98c-6.15,1.06-12.31,2.14-18.46,3.22
		c-1.19,0.21-2.47,0.64-2.4,2.07C136.7,177.38,137.92,177.44,139.36,177.36z M139.61,181.89c7.77-1.37,16.07-2.8,24.37-4.3
		c1.03-0.19,2.13-0.72,1.76-2.08c-0.34-1.24-1.43-1.34-2.54-1.15c-8.18,1.42-16.36,2.83-24.53,4.27c-1.06,0.19-2.15,0.72-2.02,1.97
		C136.78,181.94,137.98,181.96,139.61,181.89z M149.93,181.18c0.05,0.3,0.1,0.59,0.14,0.89c4.35,0,8.71,0.04,13.06-0.02
		c1.22-0.01,2.97,0.17,2.77-1.75c-0.18-1.68-1.65-1.68-3.04-1.42C158.56,179.66,154.25,180.41,149.93,181.18z M152.32,170.44
		c-0.02-0.26-0.04-0.51-0.07-0.77c-4.57,0-9.15-0.03-13.72,0.02c-1.07,0.01-2.22,0.34-2.08,1.72c0.13,1.28,1.22,1.64,2.32,1.45
		C143.31,172.1,147.81,171.25,152.32,170.44z M146.11,185.41c5.09,2.08,5.64,2.06,9.59,0C152.59,185.41,149.96,185.41,146.11,185.41
		z"/>
</g>
<g>
	<g>
		<path d="M85.13,225.39v18.19h-1.28v-18.19H85.13z"/>
		<path d="M90.39,233.73c0-1.19-0.04-2.08-0.11-3.1h1.19l0.09,2.34h0.05c0.71-1.46,2.33-2.64,4.46-2.64c1.23,0,4.52,0.63,4.52,5.49
			v7.77h-1.28v-7.65c0-2.36-0.91-4.5-3.59-4.5c-1.82,0-3.37,1.3-3.89,2.98c-0.09,0.31-0.18,0.75-0.18,1.15v8.02h-1.28V233.73z"/>
		<path d="M105.19,241.89c0.7,0.44,1.74,0.9,2.92,0.9c2.04,0,3.01-1.12,3.01-2.47c0-1.42-0.86-2.19-2.73-2.92
			c-2.12-0.82-3.29-1.98-3.29-3.55c0-1.87,1.47-3.51,3.99-3.51c1.19,0,2.2,0.36,2.88,0.82l-0.51,1.05
			c-0.45-0.32-1.28-0.78-2.56-0.78c-1.65,0-2.52,1.06-2.52,2.24c0,1.36,0.92,1.93,2.69,2.66c2.09,0.83,3.33,1.87,3.33,3.83
			c0,2.22-1.72,3.72-4.37,3.72c-1.25,0-2.43-0.36-3.29-0.9L105.19,241.89z"/>
		<path d="M118.44,226.88v3.75h3.69v1.04h-3.69v8.42c0,1.65,0.51,2.68,1.9,2.68c0.67,0,1.14-0.09,1.47-0.2l0.16,0.99
			c-0.42,0.17-1.01,0.31-1.79,0.31c-0.94,0-1.73-0.3-2.23-0.92c-0.59-0.68-0.79-1.77-0.79-3.09v-8.19h-2.19v-1.04h2.19v-3.33
			L118.44,226.88z"/>
		<path d="M132.93,243.59l-0.19-1.86h-0.06c-0.63,1-2.07,2.15-4.13,2.15c-2.6,0-3.81-1.83-3.81-3.56c0-2.99,2.63-4.79,7.9-4.74
			v-0.34c0-1.28-0.25-3.84-3.31-3.82c-1.13,0-2.31,0.3-3.25,0.96l-0.4-0.93c1.18-0.8,2.63-1.12,3.8-1.12c3.74,0,4.45,2.81,4.45,5.12
			v5.05c0,1.03,0.04,2.08,0.19,3.08H132.93z M132.64,236.66c-2.82-0.08-6.55,0.34-6.55,3.46c0,1.86,1.23,2.7,2.58,2.7
			c2.16,0,3.39-1.34,3.83-2.6c0.09-0.28,0.14-0.55,0.14-0.78V236.66z"/>
		<path d="M138.99,233.73c0-1.19-0.04-2.08-0.11-3.1h1.19l0.09,2.34h0.05c0.71-1.46,2.33-2.64,4.46-2.64c1.23,0,4.52,0.63,4.52,5.49
			v7.77h-1.28v-7.65c0-2.36-0.91-4.5-3.59-4.5c-1.82,0-3.37,1.3-3.89,2.98c-0.09,0.31-0.18,0.75-0.18,1.15v8.02h-1.28V233.73z"/>
		<path d="M156.11,226.88v3.75h3.69v1.04h-3.69v8.42c0,1.65,0.51,2.68,1.9,2.68c0.67,0,1.14-0.09,1.47-0.2l0.16,0.99
			c-0.42,0.17-1.01,0.31-1.79,0.31c-0.94,0-1.73-0.3-2.23-0.92c-0.59-0.68-0.79-1.77-0.79-3.09v-8.19h-2.19v-1.04h2.19v-3.33
			L156.11,226.88z"/>
		<path d="M182.66,242.95c-0.92,0.47-2.67,0.92-4.91,0.92c-4.4,0-8.61-2.81-8.61-9.27c0-5.41,3.48-9.49,9.22-9.49
			c2.31,0,3.66,0.51,4.22,0.8l-0.42,1.09c-0.92-0.46-2.25-0.79-3.79-0.79c-4.91,0-7.9,3.19-7.9,8.42c0,4.95,2.82,8.13,7.69,8.13
			c1.56,0,3.07-0.32,4.11-0.84L182.66,242.95z"/>
		<path d="M186.56,224.42h1.28v19.17h-1.28V224.42z"/>
		<path d="M203.12,240.42c0,1.15,0.04,2.17,0.11,3.17h-1.19l-0.09-2.3h-0.05c-0.66,1.19-2.13,2.6-4.45,2.6
			c-1.65,0-4.41-0.82-4.41-5.71v-7.54h1.28v7.28c0,2.83,0.87,4.85,3.44,4.85c1.88,0,3.27-1.32,3.82-2.63
			c0.13-0.4,0.26-0.9,0.26-1.43v-8.07h1.28V240.42z"/>
		<path d="M208.54,236.99c0,4.14,2.25,5.78,4.93,5.78c1.89,0,2.87-0.38,3.6-0.74l0.33,1.01c-0.5,0.27-1.83,0.83-4.09,0.83
			c-3.73,0-6.04-2.71-6.04-6.5c0-4.33,2.48-7.03,5.82-7.03c4.24,0,5.05,3.99,5.05,5.86c0,0.36,0,0.57-0.04,0.8H208.54z
			 M216.8,235.96c0.03-1.81-0.72-4.56-3.87-4.56c-2.85,0-4.08,2.56-4.32,4.56H216.8z"/>
	</g>
</g>
</svg>
